<svg xmlns="http://www.w3.org/2000/svg" width="540.937" height="743.208" viewBox="0 0 540.937 743.208"><defs><style>.a{fill:#fb8d04;}.b{fill:#80177e;}</style></defs><g transform="translate(0 -114.337)"><g transform="translate(0 0)"><path class="a" d="M6.57,122.8C203.613-31.5,443.937,184.539,223.01,339.93c-96.513,67.852,30.362,93.727-127.418,88.516-6.188-60-11.906-77.8,2.135-98.286,25.332-37.274,69.119-44.149,94.414-84.933,28.516-45.959-6.984-99.661-78.274-80.156C38.271,185.77,62.951,216.023,6.57,122.8Z" transform="translate(17.205 182.623)"/><path class="a" d="M24.348,235.032c2.461-74.33,117.466-69.915,115.005,3.8S21.887,309.615,24.348,235.032Z" transform="translate(63.661 474.975)"/><g transform="translate(21.568 250.436)"><path class="a" d="M130.881,432.225c-9.554,0-20.7-.217-33.727-.651H95.561v-1.592c-1.122-10.856-2.207-20.338-3.185-28.733-4.415-37.78-6.224-53.413,5.645-70.784,12.412-18.094,29.312-29.348,45.633-40.2,17.587-11.689,35.79-23.739,48.745-44.656s12.738-43.425.253-60.18c-14.8-19.867-43.425-26.309-76.5-17.225a238.59,238.59,0,0,0-41.435,15.6c-25.549,11.942-26.164,10.856-57.322-41-3.185-5.32-6.695-11.182-10.6-17.624L5.96,123.8l1.086-1.049c68.214-53.413,150-67.888,218.828-38.793,50.193,21.206,83.232,61.519,88.081,108.274,5.645,53.051-25.693,106.5-88.335,150.505-41.942,29.493-40.856,50.663-40.132,64.885.362,6.514.651,12.159-3.619,16.357C176.188,429.765,162.4,432.225,130.881,432.225Zm-32.062-4.234c52.364,1.7,74.258,0,80.59-6.55,3.04-3.076,2.786-7.491,2.461-13.643-.76-14.873-1.918-37.382,41.688-68.033,61.519-43.208,92.315-95.464,86.851-147.14-4.885-45.271-36.984-84.643-85.946-105.343C157.3,58.875,77.431,72.807,10.556,124.628c3.619,5.9,6.8,11.327,9.771,16.248C50.4,191.069,50.4,191.033,72.98,180.5a243.215,243.215,0,0,1,42.014-15.85c34.6-9.445,64.632-2.533,80.409,18.564,13.39,18.094,13.353,42.557,0,64.27s-31.918,33.872-49.831,45.742c-16.791,11.146-32.569,21.713-44.656,39.264-11.11,16.212-9.445,30.4-5.03,68.323.688,7.817,1.882,16.972,2.931,27.177Z" transform="translate(-5.96 -69.204)"/></g><g transform="translate(86.159 654.584)"><path class="a" d="M83.342,295.764H81.1c-28.516-.941-58.552-19.94-57.249-59.457.724-21.713,10.856-38.649,28.552-48.13a66.694,66.694,0,0,1,64.632,2.207c17.117,10.675,26.164,28.371,25.332,49.831C141.207,278.647,111.352,295.764,83.342,295.764ZM27.468,236.38c-1.23,37.02,27,54.861,53.739,55.729s56.417-15.018,57.647-52.038c.688-20.12-7.744-36.695-23.739-46.646a63,63,0,0,0-61.013-2.1c-16.5,8.83-25.983,24.825-26.634,45.054Z" transform="translate(-23.809 -180.885)"/></g><g transform="translate(0 240.975)"><path class="a" d="M82.56,266.417c-9.771,0-21.025-.217-34.089-.651l-15.778-.543-1.628-15.706C29.943,238.661,28.857,229.325,27.88,221c-4.777-39.517-6.948-59.529,8.359-81.785l.362-.507,2.967,2.063-.326.507c-14.475,21.242-12.268,40.675-7.78,79.36.977,8.359,2.063,17.768,3.185,28.588l1.3,12.557,12.63.434c63.22,2.1,83.485-.362,94.306-11.4a23.7,23.7,0,0,0,6.333-11.291l3.619.869a27.285,27.285,0,0,1-7.238,12.955C136.155,262.8,120.992,266.417,82.56,266.417Z" transform="translate(63.747 122.277)"/><path class="a" d="M92.662,141.784l-3.619-.507a35.9,35.9,0,0,0,.4-5.139,31.447,31.447,0,0,0-3.619-14.982C79.815,109.9,66.9,103.063,50.358,102.629a64.525,64.525,0,0,0-7.455,0L42.65,99.01c2.678,0,5.283-.217,7.817,0,17.841.579,31.918,8.034,38.54,20.41a35.175,35.175,0,0,1,4.125,16.719,37.783,37.783,0,0,1-.47,5.645Z" transform="translate(111.691 18.058)"/><path class="a" d="M71.978,213.079H70.892c-19.361-.651-27.611-14.475-52-55.078-3.185-5.32-6.695-11.182-10.6-17.551L0,126.662l12.63-9.879A266.886,266.886,0,0,1,112.979,66.59l.868,3.619a262.652,262.652,0,0,0-98.974,49.433L4.741,127.53,11.4,138.387c3.908,6.441,7.238,12.268,10.567,17.587,23.667,39.481,31.628,52.762,49.071,53.341a34.305,34.305,0,0,0,13.426-2.533l1.267,3.365a38.287,38.287,0,0,1-13.751,2.931Z" transform="translate(0 -66.59)"/><path class="a" d="M84.518,233.318l-2.678-2.461c30.615-33.474,46.827-70.494,46.827-107.116a125.607,125.607,0,0,0-2.135-22.943l3.619-.688a130.28,130.28,0,0,1,2.171,23.631C132.286,161.231,115.748,199.156,84.518,233.318Z" transform="translate(214.322 21.192)"/></g><g transform="translate(69.879 670.489)"><path class="a" d="M92.663,300.5h-.326c-36.188-1.23-73.027-26.779-73.027-73.317v-2.967a79.36,79.36,0,0,1,4.741-25.078l3.4,1.267a76,76,0,0,0-4.523,23.92v2.859c0,44.258,34.957,68.54,69.517,69.7Zm68.757-36.912-3.148-1.737a72.557,72.557,0,0,0,8.54-32.75v-2.859a68.286,68.286,0,0,0-11.11-38.938l3-2.026a71.977,71.977,0,0,1,11.906,40.965v2.967a75.777,75.777,0,0,1-9.083,34.378Z" transform="translate(-19.31 -185.28)"/></g><path class="b" d="M65.84,143.11c153.292-120,340.166,48.058,168.382,168.853-75.054,52.8,23.594,72.919-99.119,68.757-4.813-46.646-9.264-60.506,1.665-76.465,19.831-28.95,53.775-34.342,73.461-66.079,22.147-35.717-5.464-77.478-60.9-62.316C90.52,192.109,109.844,215.631,65.84,143.11Z" transform="translate(172.421 266.717)"/><path class="b" d="M79.672,230.431c1.918-57.9,91.374-54.282,89.456,2.967S77.754,288.44,79.672,230.431Z" transform="translate(208.565 494.159)"/><g transform="translate(236.09 366.698)"><path class="b" d="M162.766,384.5c-7.238,0-16.067,0-26.164-.507h-1.556v-1.556c-.868-8.468-1.737-15.85-2.461-22.364-3.619-29.493-4.885-41.725,4.415-55.331,9.735-14.186,22.907-22.943,35.645-31.411,13.643-9.047,27.756-18.42,37.78-34.6s9.843-33.51.253-46.357c-11.435-15.307-33.546-20.265-59.131-13.281a189.658,189.658,0,0,0-32.171,12.123c-20.193,9.445-21.134,7.889-45.054-32.062l-8.251-13.715-.832-1.375,1.267-.977c53.16-41.652,116.923-52.943,170.626-30.253,39.155,16.574,64.849,48.2,68.757,84.571,4.415,41.4-20.048,83.232-68.757,117.43-32.569,22.835-31.592,39.264-31.049,50.156.29,5.139.507,9.626-2.823,13.028C198.448,382.4,187.41,384.5,162.766,384.5ZM138.3,380.443c40.35,1.267,57.213,0,62.062-4.994,2.207-2.28,2.026-5.645,1.809-10.314-.615-11.689-1.52-29.312,32.569-53.3,47.7-33.51,71.616-74.04,67.346-114.064-3.619-35.066-28.625-65.572-66.55-81.64-52.038-22-113.883-11.218-165.741,28.95l7.238,12.34c23.233,38.721,23.233,38.721,40.458,30.651a190.532,190.532,0,0,1,32.569-12.34c27.069-7.238,50.663-1.954,62.967,14.475,10.495,14.077,10.495,33.4,0,50.446s-24.9,26.417-38.866,35.717c-13.028,8.649-25.332,16.791-34.632,30.4-8.54,12.521-7.238,23.522-3.836,52.907C136.747,365.75,137.507,372.626,138.3,380.443Z" transform="translate(-65.24 -101.332)"/></g><g transform="translate(286.308 681.206)"><path class="b" d="M125.919,278.235A50.662,50.662,0,0,1,99.176,271a42.557,42.557,0,0,1-19.94-39.3h0c1.013-30.9,25.332-44.185,47.913-43.425,23.2.76,46.14,17.008,45.162,46.538a42.557,42.557,0,0,1-22.581,37.852A50.409,50.409,0,0,1,125.919,278.235ZM82.855,231.7a39.156,39.156,0,0,0,18.094,36.188,48.347,48.347,0,0,0,47.044,1.484,39.083,39.083,0,0,0,20.663-34.776c.941-28.444-20.953-42.123-41.688-42.81S83.76,203.326,82.819,231.77Z" transform="translate(-79.117 -188.242)"/></g><g transform="translate(214.486 351.602)"><path class="b" d="M127.983,273.076c-7.708,0-16.574-.217-26.851-.543l-15.778-.507-1.665-15.706c-.832-8.106-1.665-15.235-2.388-21.713v-.615c-3.619-31.809-5.573-47.768,7.238-66.4a96.257,96.257,0,0,1,15.416-17.479l2.425,2.678a92.89,92.89,0,0,0-14.837,16.827c-12.014,17.551-10.2,33.04-6.586,63.98v.615c.724,6.3,1.556,13.426,2.388,21.532l1.3,12.593,12.63.4c50.88,1.7,66.477-.326,75.777-9.807,7.238-7.238,6.767-16.14,6.441-22.581a42.707,42.707,0,0,1,0-7.419l3.619.4a39.33,39.33,0,0,0,0,6.839c.326,6.695.868,16.791-7.491,25.332S159.394,273.076,127.983,273.076Z" transform="translate(-8.671 41.505)"/><path class="b" d="M123.393,156.684l-3.619-.724a25.833,25.833,0,0,0,.507-4.922,20.337,20.337,0,0,0-2.388-9.771c-3.619-6.84-11.58-11.254-21.713-12.159l.289-3.619c11.435.977,20.41,6.116,24.644,14.041A23.848,23.848,0,0,1,123.936,151a27.687,27.687,0,0,1-.543,5.681Z" transform="translate(37.389 -22.97)"/><path class="b" d="M120.536,223.239H119.6c-17.262-.579-24.5-12.593-43.787-44.8l-8.215-13.679L59.27,151.044l12.63-9.879a206.053,206.053,0,0,1,102.81-44l.434,3.619a202.182,202.182,0,0,0-101,43.208l-10.1,7.925,6.622,10.856,8.215,13.679C97.448,207.424,104.215,219,119.7,219.511c7.238.326,13.317-2.642,20.482-6.007,2.823-1.339,5.862-2.75,9.336-4.234l1.411,3.329c-3.438,1.484-6.441,2.859-9.192,4.162C134.288,220.271,128.063,223.239,120.536,223.239Z" transform="translate(-59.27 -97.16)"/><path class="b" d="M130.153,222.821l-2.823-2.28c19.252-24.246,28.95-49.758,28.95-75.741a101.726,101.726,0,0,0-1.773-19l3.619-.651a105.63,105.63,0,0,1,1.846,19.65C159.971,171.651,149.947,197.888,130.153,222.821Z" transform="translate(118.965 -23.86)"/></g><g transform="translate(270.106 664.732)"><path class="b" d="M135.327,306.442c-30.145-1.013-60.687-22.292-60.687-61.013v-2.5c1.375-41.761,34.885-60.217,64.7-59.2a63.22,63.22,0,0,1,53.45,30.651l-3.148,1.773a59.637,59.637,0,0,0-50.41-28.95c-28.082-.9-59.674,16.393-60.977,55.729v2.352c0,36.441,28.95,56.453,57.213,57.394Z" transform="translate(-74.64 -183.689)"/></g><path class="a" d="M142.438,82.438A24.644,24.644,0,1,1,117.83,57.83a24.644,24.644,0,0,1,24.608,24.608Z" transform="translate(243.94 151.445)"/><circle class="a" cx="10.929" cy="10.929" r="10.929" transform="translate(364.521 312.98)"/><circle class="a" cx="10.929" cy="10.929" r="10.929" transform="translate(449.309 114.337)"/><circle class="a" cx="11.616" cy="11.616" r="11.616" transform="translate(517.704 177.827)"/><path class="a" d="M24.684,190.077a7.527,7.527,0,1,1-7.527-7.527A7.527,7.527,0,0,1,24.684,190.077Z" transform="translate(25.219 478.06)"/><circle class="a" cx="14.367" cy="14.367" r="14.367" transform="translate(202.399 815.168)"/><path class="a" d="M46.783,65.632a15.706,15.706,0,1,1-4.6-11.142,15.742,15.742,0,0,1,4.6,11.142Z" transform="translate(40.067 130.651)"/><path class="a" d="M54.164,33.227A7.527,7.527,0,1,1,46.637,25.7a7.527,7.527,0,0,1,7.527,7.527Z" transform="translate(102.421 181.64)"/><circle class="b" cx="10.929" cy="10.929" r="10.929" transform="translate(431.541 280.384)"/><path class="b" d="M98.318,18.127a15.018,15.018,0,1,1-4.36-10.689,15.054,15.054,0,0,1,4.36,10.689Z" transform="translate(178.628 122.193)"/><circle class="b" cx="14.367" cy="14.367" r="14.367" transform="translate(423.29 618.198)"/><path class="b" d="M126.351,205.959a4.089,4.089,0,1,1-1.21-2.9A4.125,4.125,0,0,1,126.351,205.959Z" transform="translate(309.279 528.655)"/><path class="b" d="M141.091,225.569a4.125,4.125,0,1,1-4.125-4.089,4.125,4.125,0,0,1,4.125,4.089Z" transform="translate(347.88 580.009)"/><circle class="b" cx="11.616" cy="11.616" r="11.616" transform="translate(363.145 834.312)"/></g></g></svg>