<?xml version="1.0" encoding="utf-8"?>
<svg xmlns="http://www.w3.org/2000/svg" height="35.099" viewBox="0 0 35 35.099" width="35">
  <defs>
    <style>.a{fill:#fff;}.b{clip-path:url(#a);}.c{fill:#fb8d04;}</style>
    <clipPath id="a">
      <rect class="a" height="35.099" width="35"/>
    </clipPath>
  </defs>
  <g class="b">
    <path class="c" d="M34.638,18.231a1.181,1.181,0,0,0-.866-.328,9.565,9.565,0,0,0-4.761,1.447,10.526,10.526,0,0,0-.612-1,.514.514,0,1,0-.844.589,9.606,9.606,0,0,1,.989,9.126l-1.253,3.144H22.178l-1.23-3.141,0-.008A9.574,9.574,0,0,1,23.549,17.15l1.2-1.031,1.2,1.031c.078.067.158.139.246.22a.515.515,0,0,0,.7-.758c-.1-.089-.186-.169-.273-.244l-1.531-1.32a.513.513,0,0,0-.67,0l-.395.34a7.659,7.659,0,0,0-3.943-2.693,3.141,3.141,0,0,0,1.644-2.519c0-2.255-3.356-4.021-7.641-4.021a14.467,14.467,0,0,0-2.4.2.515.515,0,0,0,.171,1.017,13.433,13.433,0,0,1,2.233-.183,11.185,11.185,0,0,1,4.813.974c1.144.563,1.8,1.3,1.8,2.016s-.656,1.453-1.8,2.016a11.185,11.185,0,0,1-4.813.974,11.185,11.185,0,0,1-4.813-.974c-1.144-.563-1.8-1.3-1.8-2.016,0-.832.874-1.674,2.338-2.253a.515.515,0,0,0-.377-.959c-1.9.752-2.989,1.922-2.989,3.212A3.142,3.142,0,0,0,8.081,12.7c-2.807,1-4.5,2.65-4.5,4.472a3.555,3.555,0,0,0,1.134,2.5C1.706,21.017,0,22.954,0,25.057c0,1.989,1.513,3.829,4.26,5.18a22.785,22.785,0,0,0,9.816,2.006,26.508,26.508,0,0,0,5.379-.534,7.737,7.737,0,0,0,2.832.534H27.2a7.818,7.818,0,0,0,7.8-7.82V19.082a1.17,1.17,0,0,0-.362-.851ZM21.027,31.093a6.8,6.8,0,0,1-5.509-6.671V19.082a.146.146,0,0,1,.046-.107.154.154,0,0,1,.111-.042,8.545,8.545,0,0,1,4.309,1.322l.043.025a10.6,10.6,0,0,0-.035,8.171Zm-6.951.118a21.75,21.75,0,0,1-9.364-1.9c-2.376-1.169-3.685-2.679-3.685-4.254a3.669,3.669,0,0,1,1.249-2.59A10.257,10.257,0,0,1,5.6,20.406a10.243,10.243,0,0,0,2.378,1.2.515.515,0,0,0,.35-.969C6,19.79,4.607,18.494,4.607,17.169c0-1.526,1.868-3.007,4.773-3.8a12.712,12.712,0,0,0,4.7.828,12.711,12.711,0,0,0,4.7-.828c2.178.594,3.8,1.582,4.454,2.7l-.348.3a10.62,10.62,0,0,0-2.4,2.98A9.566,9.566,0,0,0,15.718,17.9a1.179,1.179,0,0,0-1.228,1.179v2.476c-.138,0-.276,0-.414,0a18.716,18.716,0,0,1-3.635-.346.515.515,0,0,0-.2,1.011,19.74,19.74,0,0,0,3.835.365c.138,0,.276,0,.414,0v1.833a7.825,7.825,0,0,0,3.473,6.5,26.208,26.208,0,0,1-3.887.285Zm19.9-6.789A6.8,6.8,0,0,1,28.443,31.1L29.5,28.455a10.625,10.625,0,0,0-.039-8.172.542.542,0,0,0,.049-.027,8.545,8.545,0,0,1,4.309-1.322.155.155,0,0,1,.111.042.146.146,0,0,1,.046.107v5.341Z" transform="translate(0 2.472)"/>
    <path class="c" d="M17.571,11.42v.368a.514.514,0,1,0,1.028,0V11.42A1.565,1.565,0,0,1,20.16,9.854h2.574A4.763,4.763,0,0,0,27.484,5.09V.79a.514.514,0,1,0-1.028,0v4.3a3.732,3.732,0,0,1-3.723,3.733H20.16A2.6,2.6,0,0,0,17.571,11.42Z" transform="translate(7.057 0.11)"/>
    <path class="c" d="M16.8,10.237a.515.515,0,0,0,.514-.515V8.252a2.558,2.558,0,0,1,2.552-2.559h.368A2.625,2.625,0,0,0,22.85,3.067V.79a.514.514,0,1,0-1.028,0V3.067a1.594,1.594,0,0,1-1.59,1.595h-.368a3.589,3.589,0,0,0-3.58,3.59v1.47a.515.515,0,0,0,.514.516Z" transform="translate(6.54 0.11)"/>
  </g>
</svg>