<?xml version="1.0" encoding="utf-8"?>
<svg xmlns="http://www.w3.org/2000/svg" height="35.099" viewBox="0 0 35 35.099" width="35">
  <defs>
    <style>.a{fill:#fff;}.b{clip-path:url(#a);}.c{fill:#fb8d04;}</style>
    <clipPath id="a">
      <rect class="a" height="35.099" width="35"/>
    </clipPath>
  </defs>
  <g class="b">
    <path class="c" d="M17.908,15.965a3.473,3.473,0,1,0-3.473,3.483A3.481,3.481,0,0,0,17.908,15.965Zm-5.918,0a2.445,2.445,0,1,1,2.445,2.452A2.451,2.451,0,0,1,11.99,15.965Z" transform="translate(3.065 5.014)"/>
    <path class="c" d="M8.316,8.22A.515.515,0,0,0,7.693,7.4,15,15,0,0,0,5.882,9.034a1.709,1.709,0,0,0-.457,1.3,1.727,1.727,0,0,0,.654,1.227,1.7,1.7,0,0,0,1.053.367,1.718,1.718,0,0,0,1.252-.545,11.356,11.356,0,0,1,16.552,0,1.706,1.706,0,0,0,2.308.176,1.716,1.716,0,0,0,.195-2.52,14.8,14.8,0,0,0-4.812-3.413A14.768,14.768,0,0,0,9.6,6.163a.515.515,0,0,0,.491.905,13.74,13.74,0,0,1,16.6,2.673.665.665,0,0,1,.18.511.687.687,0,0,1-1.188.417,12.4,12.4,0,0,0-4.029-2.851,12.388,12.388,0,0,0-9.987,0A12.407,12.407,0,0,0,7.638,10.67a.686.686,0,0,1-1.188-.417.665.665,0,0,1,.18-.511A13.977,13.977,0,0,1,8.316,8.22Z" transform="translate(0.839 1.752)"/>
    <path class="c" d="M22.36,13.163a1.719,1.719,0,0,0,.125-2.591,9.99,9.99,0,0,0-13.825,0,1.719,1.719,0,0,0,.125,2.591,1.7,1.7,0,0,0,1.053.367,1.721,1.721,0,0,0,1.189-.482,6.588,6.588,0,0,1,9.091,0A1.7,1.7,0,0,0,22.36,13.163ZM10.319,12.3a.684.684,0,0,1-.9.051.686.686,0,0,1-.05-1.035,8.964,8.964,0,0,1,12.407,0,.686.686,0,0,1-.05,1.035.684.684,0,0,1-.9-.051,7.613,7.613,0,0,0-10.506,0Z" transform="translate(1.928 3.13)"/>
    <path class="c" d="M23.4,15.47a.515.515,0,0,0-.514-.515H17.146a.515.515,0,0,0,0,1.03h5.737A.515.515,0,0,0,23.4,15.47Z" transform="translate(5.343 6.007)"/>
    <path class="c" d="M33.15,14.955H31.37a.515.515,0,0,0,0,1.03h1.78a1.781,1.781,0,0,1,1.777,1.782v7.206a1.781,1.781,0,0,1-1.777,1.782H3.759a1.781,1.781,0,0,1-1.777-1.782V17.767a1.781,1.781,0,0,1,1.777-1.782h9.706a.515.515,0,0,0,0-1.03H3.759a2.811,2.811,0,0,0-2.8,2.812v7.206a2.812,2.812,0,0,0,2.8,2.812H33.15a2.812,2.812,0,0,0,2.8-2.812V17.767A2.811,2.811,0,0,0,33.15,14.955Z" transform="translate(-0.954 6.007)"/>
    <path class="c" d="M9.819,18.969a.515.515,0,0,0,0-1.03H8a.515.515,0,0,0-.514.515v4.49a.514.514,0,1,0,1.028,0V21.171H9.675a.515.515,0,0,0,0-1.03H8.519V18.969Z" transform="translate(1.671 7.205)"/>
    <path class="c" d="M16.339,18.942a.515.515,0,0,0,0-1.03H14.456a.515.515,0,0,0-.514.515v4.481a.514.514,0,0,0,.514.515h1.883a.515.515,0,0,0,0-1.03H14.97v-1.21H16.2a.515.515,0,0,0,0-1.03H14.97v-1.21Z" transform="translate(4.262 7.194)"/>
    <path class="c" d="M19.709,18.942a.515.515,0,0,0,0-1.03H17.826a.515.515,0,0,0-.514.515v4.481a.514.514,0,0,0,.514.515h1.883a.515.515,0,0,0,0-1.03H18.339v-1.21h1.23a.515.515,0,0,0,0-1.03h-1.23v-1.21Z" transform="translate(5.615 7.194)"/>
    <path class="c" d="M13.729,19.62a1.724,1.724,0,0,0-1.752-1.691h-1.2a.515.515,0,0,0-.514.515v4.523a.514.514,0,1,0,1.028,0V21.555l1.539,1.753a.514.514,0,1,0,.771-.681l-1.2-1.367a1.706,1.706,0,0,0,1.328-1.64Zm-1.752.66-.679,0c0-.242,0-.51,0-.663,0-.13,0-.407,0-.66h.683a.663.663,0,1,1,0,1.32Z" transform="translate(2.784 7.201)"/>
    <path class="c" d="M2.494,20.375a1.731,1.731,0,1,0,1.731-1.735,1.735,1.735,0,0,0-1.731,1.735Zm2.434,0a.7.7,0,1,1-.7-.705A.7.7,0,0,1,4.928,20.375Z" transform="translate(-0.336 7.486)"/>
    <path class="c" d="M23.647,22.11a1.736,1.736,0,1,0-1.73-1.736A1.735,1.735,0,0,0,23.647,22.11Zm0-2.441a.705.705,0,1,1-.7.705A.7.7,0,0,1,23.647,19.67Z" transform="translate(7.465 7.486)"/>
    <path class="c" d="M3.38,9.958A1.708,1.708,0,0,0,5.7,9.76a16.138,16.138,0,0,1,24.081,0,1.711,1.711,0,0,0,2.974-1,1.731,1.731,0,0,0-.435-1.3,19.876,19.876,0,0,0-1.957-1.9.515.515,0,0,0-.662.788,18.844,18.844,0,0,1,1.855,1.8.686.686,0,0,1,.175.522.684.684,0,0,1-1.186.4,17.164,17.164,0,0,0-25.609,0,.685.685,0,0,1-1.011-.926A18.57,18.57,0,0,1,10.06,3.631,18.518,18.518,0,0,1,28,5.063a.515.515,0,0,0,.568-.858,19.546,19.546,0,0,0-25.4,3.25,1.72,1.72,0,0,0,.215,2.5Z" transform="translate(-0.244 0.374)"/>
  </g>
</svg>