<svg xmlns="http://www.w3.org/2000/svg" xmlns:xlink="http://www.w3.org/1999/xlink" width="27" height="29" viewBox="0 0 27 29"><defs><style>.a{fill:#fff;}.b{clip-path:url(#a);}.c{fill:#fb8d04;}</style><clipPath id="a"><rect class="a" width="27" height="29" transform="translate(0.978 0)"/></clipPath></defs><g class="b" transform="translate(-0.978 0)"><path class="c" d="M12.971,12.936a5.2,5.2,0,1,0-5.2-5.2A5.207,5.207,0,0,0,12.971,12.936Zm0-9.594A4.393,4.393,0,1,1,8.578,7.735,4.4,4.4,0,0,1,12.971,3.343Z" transform="translate(0.774 1.169)"/><path class="c" d="M5.643,8.646h.014a.4.4,0,0,0,.39-.417c0-.106,0-.213,0-.32A7.18,7.18,0,0,1,17.9,2.54a.4.4,0,1,0,.526-.613A7.995,7.995,0,0,0,5.236,7.9c0,.118,0,.237,0,.355A.4.4,0,0,0,5.643,8.646Z" transform="translate(0.521 0.917)"/><path class="c" d="M14.877,14.69a.829.829,0,0,0-.526.4L13.2,17.112l-1.151-2.026a.83.83,0,0,0-.526-.4,7.165,7.165,0,0,1-5.26-5.127.4.4,0,1,0-.78.208,7.972,7.972,0,0,0,5.853,5.7.021.021,0,0,1,.011.01l1.163,2.047a.794.794,0,0,0,1.38,0l1.164-2.047a.02.02,0,0,1,.011-.01,8.025,8.025,0,0,0,4.378-2.786,7.988,7.988,0,0,0,.194-9.712.4.4,0,0,0-.651.479,7.18,7.18,0,0,1-.174,8.729A7.214,7.214,0,0,1,14.877,14.69Z" transform="translate(0.544 1.197)"/><path class="c" d="M25.262,13.257,21.84,11.122a.4.4,0,1,0-.428.685l3.232,2.016V25.347l-4.952-2.476V14.026a.4.4,0,1,0-.808,0v8.846l-4.905,2.473V18.213a.4.4,0,0,0-.808,0v7.132L8.266,22.872V14.026a.4.4,0,1,0-.808,0v8.845L2.506,25.347V22.585a.4.4,0,0,0-.808,0v3.19a.544.544,0,0,0,.787.486l5.376-2.688,5.469,2.757a.547.547,0,0,0,.489,0l5.469-2.757,5.376,2.688a.544.544,0,0,0,.787-.486V13.6a.4.4,0,0,0-.19-.343Z" transform="translate(0.169 2.018)"/><path class="c" d="M2.1,21.245a.4.4,0,0,0,.4-.4V13.824l3.232-2.016a.4.4,0,0,0-.428-.685L1.889,13.257a.4.4,0,0,0-.19.343v7.241a.4.4,0,0,0,.4.4Z" transform="translate(0.169 2.018)"/><path class="c" d="M11.121,10.19a.4.4,0,0,0,.4-.4V7.833H13.87V9.786a.4.4,0,1,0,.808,0V5.229a.4.4,0,1,0-.808,0v1.8H11.525v-1.8a.4.4,0,1,0-.808,0V9.786a.4.4,0,0,0,.4.4Z" transform="translate(1.067 1.397)"/><path class="c" d="M20.461,21.1a.4.4,0,0,0,.4-.4V20.19a1.363,1.363,0,1,0-.808,0V20.7A.4.4,0,0,0,20.461,21.1Zm0-2.768a.555.555,0,1,1-.555.555A.555.555,0,0,1,20.461,18.334Z" transform="translate(1.902 2.662)"/><path class="c" d="M4.725,17.775a.4.4,0,0,0,.4-.4v-.508a1.363,1.363,0,1,0-.808,0v.508A.4.4,0,0,0,4.725,17.775Zm0-2.768a.555.555,0,1,1-.555.555A.555.555,0,0,1,4.725,15.007Z" transform="translate(0.335 2.33)"/><path class="c" d="M11.149,18.86a.4.4,0,0,0-.57-.032l-.6.539-.587-.524a.4.4,0,1,0-.538.6l.519.464-.519.464a.4.4,0,0,0,.538.6l.587-.525.6.539a.4.4,0,0,0,.538-.6l-.535-.478.535-.478A.4.4,0,0,0,11.149,18.86Z" transform="translate(0.868 2.781)"/></g></svg>