<svg xmlns="http://www.w3.org/2000/svg" xmlns:xlink="http://www.w3.org/1999/xlink" width="35" height="35.099" viewBox="0 0 35 35.099"><defs><style>.a{fill:#fff;}.b{clip-path:url(#a);}.c{fill:#fb8d04;}</style><clipPath id="a"><rect class="a" width="35" height="35.099"/></clipPath></defs><g class="b"><path class="c" d="M20.724,0h-2.04a.514.514,0,0,0,0,1.029h2.04a1.1,1.1,0,0,1,1.1,1.1V18.791a.513.513,0,1,0,1.026,0V2.132A2.132,2.132,0,0,0,20.724,0Z" transform="translate(6.018 0)"/><path class="c" d="M27.512,20.469a.514.514,0,0,0-.513.514v3.343a1.1,1.1,0,0,1-1.1,1.1H7.414a1.1,1.1,0,0,1-1.1-1.1V2.132a1.1,1.1,0,0,1,1.1-1.1H21.673a.514.514,0,0,0,0-1.029H7.414A2.132,2.132,0,0,0,5.288,2.132V24.326a2.132,2.132,0,0,0,2.126,2.132h5.632v1.119a1.441,1.441,0,0,0,1.437,1.441h.632v5.567a.513.513,0,1,0,1.026,0V29.018h1.03v5.567a.513.513,0,1,0,1.026,0V29.018h.632a1.441,1.441,0,0,0,1.437-1.441V26.458H25.9a2.132,2.132,0,0,0,2.126-2.132V20.983a.514.514,0,0,0-.513-.514ZM19.24,27.577a.412.412,0,0,1-.411.412H14.484a.412.412,0,0,1-.411-.412V26.458H19.24v1.119Z" transform="translate(0.843 0)"/><path class="c" d="M6.751,1.982V23.3a.514.514,0,0,0,.513.514H24.872a.514.514,0,0,0,.513-.514V1.982a.514.514,0,0,0-.513-.514H7.264a.514.514,0,0,0-.513.514ZM7.777,2.5H24.359V22.782H7.777Z" transform="translate(1.431 0.59)"/><path class="c" d="M18.168,2.81A1.436,1.436,0,1,0,19.6,4.245,1.435,1.435,0,0,0,18.168,2.81Zm0,1.843a.407.407,0,1,1,.406-.407A.407.407,0,0,1,18.168,4.652Z" transform="translate(5.441 1.128)"/><path class="c" d="M9.5,2.81a1.436,1.436,0,1,0,1.432,1.436A1.435,1.435,0,0,0,9.5,2.81Zm0,1.843A.407.407,0,1,1,9.9,4.245.407.407,0,0,1,9.5,4.652Z" transform="translate(1.96 1.128)"/><path class="c" d="M18.168,14.252A1.436,1.436,0,1,0,19.6,15.688,1.435,1.435,0,0,0,18.168,14.252Zm0,1.843a.407.407,0,1,1,.406-.407A.407.407,0,0,1,18.168,16.095Z" transform="translate(5.441 5.724)"/><path class="c" d="M9.5,14.252a1.436,1.436,0,1,0,1.432,1.436A1.435,1.435,0,0,0,9.5,14.252Zm0,1.843a.407.407,0,1,1,.406-.407A.407.407,0,0,1,9.5,16.095Z" transform="translate(1.96 5.724)"/><path class="c" d="M12.4,11.24h2.163a2.3,2.3,0,0,0,0-4.6H12.4a.514.514,0,0,0-.513.514v3.57a.514.514,0,0,0,.513.514Zm.513-3.57h1.65a1.27,1.27,0,0,1,0,2.541h-1.65Z" transform="translate(3.495 2.668)"/><path class="c" d="M15.155,5.173H11.846A1.423,1.423,0,0,0,10.427,6.6V8a.513.513,0,1,0,1.026,0V6.6a.394.394,0,0,1,.393-.394h3.309a3.328,3.328,0,0,1,0,6.656H12.992a.514.514,0,0,0-.513.514V17.96H11.453V10.2a.513.513,0,1,0-1.026,0v7.911a.882.882,0,0,0,.88.883h1.317a.883.883,0,0,0,.88-.883v-4.22h1.65a4.357,4.357,0,0,0,0-8.714Z" transform="translate(2.907 2.078)"/></g></svg>