<svg xmlns="http://www.w3.org/2000/svg" width="35.159" height="23.599" viewBox="0 0 35.159 23.599"><defs><style>.a{fill:#fb8d04;}</style></defs><g transform="translate(0)"><g transform="translate(0 0)"><path class="a" d="M34.644,99.582c-.208,0-.4.009-.586.024V91.29a.515.515,0,0,0-.515-.515H27.488a.515.515,0,1,0,0,1.03h5.54v7.988a6.332,6.332,0,0,0-1.488.685,4.8,4.8,0,0,1-5.174,0,5.459,5.459,0,0,0-3.1-.9,5.533,5.533,0,0,0-1.865.29V91.8h3.889a.515.515,0,1,0,0-1.03H24.7V86.335a2.166,2.166,0,1,0-4.333,0v4.439H16.994V86.335a2.166,2.166,0,1,0-4.333,0v4.439H1.616a.515.515,0,0,0-.515.515v8.317c-.183-.016-.378-.024-.586-.024a.515.515,0,1,0,0,1.03,4.4,4.4,0,0,1,2.584.756,5.451,5.451,0,0,0,3.1.9,5.452,5.452,0,0,0,3.1-.9,4.407,4.407,0,0,1,2.585-.756,4.41,4.41,0,0,1,2.586.756,5.456,5.456,0,0,0,3.1.9,5.453,5.453,0,0,0,3.1-.9,4.8,4.8,0,0,1,5.172,0,5.828,5.828,0,0,0,6.208,0,4.413,4.413,0,0,1,2.587-.756.515.515,0,1,0,0-1.03Zm-21.983.043a6.646,6.646,0,0,0-.774-.043,5.452,5.452,0,0,0-3.1.9,4.407,4.407,0,0,1-2.585.756,4.405,4.405,0,0,1-2.584-.756,6.326,6.326,0,0,0-1.485-.684V91.8h10.53Zm1.03-13.29h0a1.136,1.136,0,1,1,2.273,0v4.439H13.691Zm6.677,14.023-.207.119a4.407,4.407,0,0,1-2.585.756,4.411,4.411,0,0,1-2.586-.756,6.757,6.757,0,0,0-1.3-.626V98.41h6.677Zm0-2.978H13.691V95.107h6.677Zm0-3.3H13.691V91.8h6.677Zm1.03-7.742h0a1.136,1.136,0,0,1,2.273,0v4.439H21.4Z" transform="translate(0 -84.169)"/></g></g><g transform="translate(33.028 18.165)"><path class="a" d="M482.585,348.7a6.156,6.156,0,0,0-1.2.109.515.515,0,1,0,.2,1.011,5.141,5.141,0,0,1,1-.089.515.515,0,0,0,0-1.03Z" transform="translate(-480.969 -348.701)"/></g><g transform="translate(0 18.165)"><path class="a" d="M31.764,350.076a.515.515,0,0,0-.7-.217,4.181,4.181,0,0,1-2.115.491,4.413,4.413,0,0,1-2.587-.756,5.825,5.825,0,0,0-6.206,0,4.407,4.407,0,0,1-2.585.756,4.411,4.411,0,0,1-2.586-.756,5.455,5.455,0,0,0-3.1-.9,5.452,5.452,0,0,0-3.1.9,4.407,4.407,0,0,1-2.585.756,4.405,4.405,0,0,1-2.584-.756,5.451,5.451,0,0,0-3.1-.9.515.515,0,0,0,0,1.03,4.4,4.4,0,0,1,2.584.756,5.451,5.451,0,0,0,3.1.9,5.453,5.453,0,0,0,3.1-.9,4.407,4.407,0,0,1,2.585-.756,4.41,4.41,0,0,1,2.586.756,5.456,5.456,0,0,0,3.1.9,5.453,5.453,0,0,0,3.1-.9,4.8,4.8,0,0,1,5.172,0,5.459,5.459,0,0,0,3.1.9,5.2,5.2,0,0,0,2.593-.609A.515.515,0,0,0,31.764,350.076Z" transform="translate(0 -348.699)"/></g><g transform="translate(3.302 20.918)"><g transform="translate(0 0)"><path class="a" d="M79.425,388.781a5.458,5.458,0,0,0-3.1.9,4.8,4.8,0,0,1-5.174,0,5.825,5.825,0,0,0-6.206,0,4.8,4.8,0,0,1-5.171,0,5.823,5.823,0,0,0-6.2,0,4.407,4.407,0,0,1-2.585.756,4.191,4.191,0,0,1-2.142-.507.515.515,0,0,0-.483.91,5.207,5.207,0,0,0,2.625.627,5.452,5.452,0,0,0,3.1-.9,4.8,4.8,0,0,1,5.17,0,5.823,5.823,0,0,0,6.205,0,4.8,4.8,0,0,1,5.172,0,5.828,5.828,0,0,0,6.208,0,4.413,4.413,0,0,1,2.587-.756.515.515,0,0,0,0-1.03Z" transform="translate(-48.083 -388.781)"/></g></g><g transform="translate(0 20.918)"><g transform="translate(0 0)"><path class="a" d="M1.716,388.891a6.144,6.144,0,0,0-1.2-.109.515.515,0,0,0,0,1.03,5.13,5.13,0,0,1,1,.089.515.515,0,1,0,.2-1.011Z" transform="translate(0 -388.782)"/></g></g></svg>